<?xml version="1.0" encoding="utf-8"?>
<!-- Generator: Adobe Illustrator 16.0.0, SVG Export Plug-In . SVG Version: 6.00 Build 0)  -->
<!DOCTYPE svg PUBLIC "-//W3C//DTD SVG 1.1//EN" "http://www.w3.org/Graphics/SVG/1.1/DTD/svg11.dtd">
<svg version="1.1" id="Capa_1" xmlns="http://www.w3.org/2000/svg" xmlns:xlink="http://www.w3.org/1999/xlink" x="0px" y="0px"
	 width="44.906px" height="96.411px" viewBox="20.438 -23.661 44.906 96.411" enable-background="new 20.438 -23.661 44.906 96.411"
	 xml:space="preserve">
<g>
	<g>
		<polygon fill="#FFFFFF" points="43.106,0.684 40.934,0.101 45.803,-18.008 62.959,-23.661 63.662,-21.524 47.661,-16.251 		"/>
	</g>
	<path fill="#FFFFFF" d="M64.947,8.941c-0.157-0.245-0.521-1.43-0.521-1.43c1.208-1.593-1.043-2.206-1.043-2.206l-0.846-4.617
		C49.6-2.703,25.293,0.567,24.729,0.81c-0.562,0.246-0.924,4.782-0.924,4.782c-2.292,1.267-0.722,1.716-0.842,2.124
		c-0.122,0.409-0.646,1.595-0.646,1.595c-2.001,1.018,0.734,0.966,1.722,0.917c1.102,6.104,5.735,59.558,5.735,59.558
		s10.847,4.043,28.311,0l5.073-59.953c0.255-0.017,0.854-0.064,1.631-0.153C65.834,9.555,65.111,9.188,64.947,8.941z"/>
	<g>
		<path fill="#42210B" d="M26.215,14.845l5.991,53.952c0,0,15.942,2.628,23.849-0.717l5.512-53.473L26.215,14.845z"/>
	</g>
	<g>
		<g>
			<path fill="#FFFFFF" d="M37.33,60.762l1.333-0.695c0.293-0.151,0.405-0.511,0.253-0.801c-0.15-0.291-0.509-0.404-0.801-0.254
				l-1.333,0.695c-0.296,0.152-0.405,0.514-0.253,0.804c0.053,0.098,0.123,0.173,0.212,0.228
				C36.91,60.848,37.138,60.865,37.33,60.762z"/>
		</g>
	</g>
	<g>
		<g>
			<path fill="#FFFFFF" d="M39.298,67.711l-5.68-3.549c-0.322-0.199-0.42-0.625-0.217-0.945l3.549-5.678
				c0.202-0.32,0.625-0.418,0.946-0.219l5.677,3.551c0.322,0.199,0.42,0.627,0.22,0.947l-3.554,5.676
				C40.04,67.815,39.615,67.912,39.298,67.711z M37.558,57.861c-0.022-0.014-0.053-0.008-0.066,0.018l-3.551,5.674
				c-0.014,0.025-0.007,0.057,0.016,0.07l5.679,3.549c0.021,0.015,0.054,0.008,0.066-0.015l3.551-5.679
				c0.012-0.023,0.006-0.052-0.018-0.066L37.558,57.861z"/>
		</g>
	</g>
	<g>
		<g>
			<path fill="#FFFFFF" d="M40.827,51.268l1.334-0.696c0.295-0.149,0.405-0.51,0.257-0.8c-0.153-0.291-0.513-0.404-0.806-0.253
				l-1.335,0.697c-0.292,0.149-0.405,0.51-0.25,0.801c0.054,0.097,0.121,0.173,0.207,0.228
				C40.409,51.353,40.637,51.369,40.827,51.268z"/>
		</g>
	</g>
	<g>
		<g>
			<path fill="#FFFFFF" d="M42.794,58.219l-5.676-3.551c-0.324-0.199-0.422-0.623-0.217-0.945l3.549-5.678
				c0.197-0.319,0.623-0.418,0.941-0.217l5.679,3.549c0.321,0.203,0.421,0.625,0.218,0.947l-3.549,5.678
				C43.54,58.321,43.114,58.419,42.794,58.219z M41.057,48.369c-0.023-0.016-0.057-0.008-0.07,0.014l-3.548,5.678
				c-0.014,0.023-0.008,0.055,0.015,0.068l5.68,3.549c0.02,0.016,0.053,0.008,0.066-0.015l3.551-5.679
				c0.012-0.023,0.006-0.053-0.017-0.066L41.057,48.369z"/>
		</g>
	</g>
	<g>
		<g>
			<g>
				<path fill="#FFFFFF" d="M50.76,59.615c0.085-0.055,0.16-0.133,0.212-0.229c0.15-0.292,0.037-0.651-0.255-0.803l-1.336-0.695
					c-0.29-0.15-0.647-0.037-0.797,0.254c-0.156,0.289-0.043,0.649,0.252,0.8l1.332,0.696C50.36,59.74,50.586,59.723,50.76,59.615z"
					/>
			</g>
		</g>
		<g>
			<g>
				<path fill="#FFFFFF" d="M47.256,66.37l-3.55-5.677c-0.201-0.32-0.104-0.744,0.219-0.945l5.677-3.551
					c0.323-0.2,0.745-0.102,0.944,0.217l3.554,5.68c0.2,0.32,0.1,0.745-0.219,0.943l-5.68,3.551
					C47.88,66.789,47.459,66.69,47.256,66.37z M44.264,60.287c-0.027,0.016-0.03,0.044-0.017,0.068l3.546,5.677
					c0.019,0.024,0.05,0.029,0.071,0.017l5.679-3.551c0.022-0.014,0.028-0.043,0.015-0.066l-3.549-5.68
					c-0.015-0.023-0.046-0.029-0.068-0.016L44.264,60.287z"/>
			</g>
		</g>
	</g>
	<g>
		<g>
			<g>
				<path fill="#FFFFFF" d="M50.261,46.521l1.335-0.694c0.289-0.151,0.401-0.512,0.251-0.801c-0.15-0.292-0.511-0.405-0.8-0.255
					l-1.336,0.695c-0.291,0.152-0.405,0.514-0.254,0.803c0.052,0.096,0.127,0.174,0.211,0.23
					C49.839,46.607,50.065,46.624,50.261,46.521z"/>
			</g>
		</g>
		<g>
			<g>
				<path fill="#FFFFFF" d="M52.226,53.473l-5.677-3.551c-0.32-0.199-0.419-0.625-0.218-0.945l3.548-5.678
					c0.202-0.321,0.626-0.418,0.948-0.217l5.675,3.549c0.322,0.201,0.418,0.625,0.219,0.945l-3.551,5.678
					C52.969,53.576,52.547,53.674,52.226,53.473z M50.488,43.623c-0.023-0.015-0.053-0.008-0.068,0.014l-3.553,5.678
					c-0.011,0.022-0.003,0.055,0.018,0.068l5.679,3.549c0.025,0.014,0.052,0.006,0.068-0.016l3.549-5.678
					c0.014-0.023,0.008-0.054-0.015-0.067L50.488,43.623z"/>
			</g>
		</g>
	</g>
	<g>
		<g>
			<g>
				<path fill="#FFFFFF" d="M49.884,26.911l1.333-0.696c0.292-0.151,0.41-0.51,0.252-0.802c-0.148-0.292-0.508-0.404-0.799-0.252
					l-1.334,0.696c-0.292,0.15-0.406,0.511-0.252,0.8c0.049,0.099,0.123,0.178,0.21,0.23C49.468,26.994,49.69,27.012,49.884,26.911z
					"/>
			</g>
		</g>
		<g>
			<g>
				<path fill="#FFFFFF" d="M51.85,33.859l-5.677-3.549c-0.321-0.2-0.415-0.624-0.22-0.947l3.552-5.675
					c0.2-0.324,0.626-0.42,0.945-0.22l5.678,3.55c0.319,0.2,0.419,0.624,0.219,0.945l-3.551,5.678
					C52.596,33.963,52.17,34.062,51.85,33.859z M50.115,24.011c-0.024-0.014-0.058-0.007-0.069,0.016l-3.551,5.676
					c-0.014,0.023-0.009,0.053,0.016,0.068l5.679,3.55c0.022,0.014,0.054,0.008,0.067-0.015l3.551-5.679
					c0.011-0.022,0.006-0.053-0.015-0.067L50.115,24.011z"/>
			</g>
		</g>
	</g>
	<g>
		<g>
			<g>
				<path fill="#FFFFFF" d="M44.451,36.715l1.332-0.693c0.296-0.152,0.407-0.512,0.256-0.801c-0.151-0.293-0.511-0.406-0.803-0.254
					l-1.334,0.695c-0.294,0.15-0.405,0.51-0.252,0.803c0.049,0.097,0.124,0.174,0.21,0.229
					C44.033,36.801,44.26,36.818,44.451,36.715z"/>
			</g>
		</g>
		<g>
			<g>
				<path fill="#FFFFFF" d="M46.418,43.666l-5.679-3.549c-0.319-0.201-0.421-0.626-0.22-0.946l3.549-5.677
					c0.201-0.322,0.628-0.419,0.949-0.22l5.679,3.551c0.32,0.202,0.416,0.625,0.217,0.946l-3.549,5.678
					C47.161,43.768,46.739,43.867,46.418,43.666z M44.679,33.816c-0.023-0.016-0.054-0.01-0.068,0.015l-3.547,5.678
					c-0.018,0.022-0.011,0.054,0.014,0.065l5.679,3.552c0.021,0.016,0.054,0.008,0.066-0.016l3.551-5.676
					c0.015-0.024,0.006-0.056-0.017-0.068L44.679,33.816z"/>
			</g>
		</g>
	</g>
	<g>
		<g>
			<g>
				<path fill="#FFFFFF" d="M35.956,30.095l1.337-0.694c0.289-0.152,0.403-0.513,0.25-0.801c-0.149-0.293-0.508-0.405-0.802-0.254
					l-1.331,0.697c-0.295,0.15-0.408,0.509-0.253,0.801c0.046,0.098,0.121,0.173,0.208,0.229
					C35.535,30.181,35.763,30.197,35.956,30.095z"/>
			</g>
		</g>
		<g>
			<g>
				<path fill="#FFFFFF" d="M37.924,37.045l-5.679-3.549c-0.32-0.201-0.418-0.625-0.222-0.945l3.553-5.678
					c0.202-0.319,0.625-0.418,0.945-0.217l5.68,3.548c0.321,0.202,0.418,0.626,0.217,0.947l-3.551,5.677
					C38.668,37.148,38.246,37.248,37.924,37.045z M36.185,27.194c-0.021-0.013-0.053-0.005-0.067,0.017l-3.551,5.678
					c-0.012,0.021-0.005,0.054,0.018,0.067l5.679,3.55c0.021,0.016,0.052,0.006,0.066-0.017l3.549-5.679
					c0.016-0.022,0.007-0.051-0.015-0.065L36.185,27.194z"/>
			</g>
		</g>
	</g>
	<g>
		<g>
			<g>
				<path fill="#FFFFFF" d="M37.895,42.252c0.083-0.053,0.157-0.133,0.212-0.23c0.149-0.29,0.036-0.648-0.257-0.801l-1.333-0.695
					c-0.291-0.152-0.649-0.039-0.801,0.254c-0.152,0.291-0.043,0.648,0.253,0.801l1.332,0.696
					C37.495,42.377,37.719,42.359,37.895,42.252z"/>
			</g>
		</g>
		<g>
			<g>
				<path fill="#FFFFFF" d="M34.39,49.006l-3.549-5.678c-0.202-0.317-0.106-0.744,0.217-0.945l5.682-3.547
					c0.318-0.203,0.742-0.104,0.942,0.217l3.551,5.678c0.196,0.32,0.104,0.746-0.22,0.946l-5.679,3.55
					C35.014,49.426,34.588,49.328,34.39,49.006z M31.397,42.924c-0.022,0.014-0.031,0.047-0.019,0.067l3.552,5.679
					c0.015,0.023,0.044,0.029,0.066,0.016l5.677-3.551c0.023-0.013,0.031-0.043,0.019-0.065l-3.552-5.679
					c-0.013-0.022-0.046-0.029-0.072-0.017L31.397,42.924z"/>
			</g>
		</g>
	</g>
</g>
</svg>
