<?xml version="1.0" encoding="utf-8"?>
<!-- Generator: Adobe Illustrator 16.0.0, SVG Export Plug-In . SVG Version: 6.00 Build 0)  -->
<!DOCTYPE svg PUBLIC "-//W3C//DTD SVG 1.1//EN" "http://www.w3.org/Graphics/SVG/1.1/DTD/svg11.dtd">
<svg version="1.1" id="Capa_1" xmlns="http://www.w3.org/2000/svg" xmlns:xlink="http://www.w3.org/1999/xlink" x="0px" y="0px"
	 width="27.375px" height="59px" viewBox="0 0 27.375 59" enable-background="new 0 0 27.375 59" xml:space="preserve">
<g>
	<g>
		<path fill="#FFFFFF" d="M26.356,22.627c-0.091-0.141-0.295-0.815-0.295-0.815c0.686-0.906-0.596-1.255-0.596-1.255l-0.479-2.628
			c-7.364-1.931-21.196-0.07-21.518,0.069c-0.318,0.141-0.525,2.721-0.525,2.721c-1.302,0.722-0.411,0.977-0.479,1.209
			c-0.07,0.234-0.367,0.906-0.367,0.906c-1.141,0.58,0.418,0.551,0.979,0.522C3.703,26.83,6.34,57.249,6.34,57.249
			s6.174,2.301,16.112,0l2.888-34.117c0.143-0.009,0.485-0.034,0.926-0.087C26.861,22.974,26.449,22.766,26.356,22.627z"/>
		<path fill="#FFFFFF" d="M13.858,58.896L13.858,58.896c-4.829,0-7.615-1.022-7.733-1.066l-0.363-0.139l-0.034-0.389
			c-0.025-0.291-2.442-28.124-3.177-33.318c-0.513-0.001-1.307-0.026-1.456-0.652c-0.114-0.471,0.247-0.77,0.523-0.936
			c0.059-0.14,0.124-0.295,0.173-0.419c-0.107-0.161-0.224-0.412-0.16-0.73c0.078-0.392,0.393-0.677,0.726-0.894
			c0.237-2.645,0.602-2.803,0.868-2.92c0.378-0.163,6.664-0.99,12.869-0.99c3.749,0,6.793,0.299,9.049,0.892l0.378,0.099
			l0.488,2.676c0.293,0.144,0.66,0.402,0.808,0.835c0.078,0.224,0.112,0.556-0.084,0.95c0.055,0.162,0.105,0.307,0.138,0.382
			c0,0,0.004,0.003,0.006,0.005c0.105,0.101,0.429,0.408,0.285,0.842c-0.15,0.453-0.656,0.513-0.823,0.532
			c-0.156,0.019-0.302,0.034-0.431,0.047l-2.879,34.045l-0.438,0.106C19.615,58.542,16.677,58.896,13.858,58.896z M6.918,56.846
			c0.879,0.259,3.318,0.926,6.94,0.926l0,0c2.588,0,5.283-0.364,8.02-0.966l2.892-34.223l0.527-0.05
			c0.074-0.006,0.19-0.021,0.338-0.033c-0.044-0.129-0.1-0.297-0.162-0.505l-0.093-0.302l0.189-0.252
			c0.04-0.054,0.062-0.092,0.069-0.113c-0.061-0.063-0.228-0.15-0.335-0.178l-0.374-0.103l-0.477-2.618
			c-2.115-0.502-4.925-0.755-8.359-0.755c-5.592,0-11.022,0.672-12.226,0.871c-0.116,0.416-0.245,1.404-0.313,2.223L3.53,21.098
			l-0.291,0.161c-0.144,0.08-0.241,0.144-0.306,0.194c0.097,0.141,0.202,0.368,0.12,0.65c-0.045,0.151-0.156,0.426-0.249,0.647
			c0.091-0.002,0.175-0.004,0.24-0.01l0.54-0.024l0.096,0.56C4.273,26.56,6.589,53.064,6.918,56.846z"/>
	</g>
	<polygon fill="#C69C6D" points="24.187,30 24.955,23.166 3.568,22.995 4.381,30 	"/>
	<path fill="#42210B" d="M5.656,42l1.539,14.316c0,0,9.64,1.396,14.425-0.634L23.005,42H5.656z"/>
	<polygon fill="#8C6239" points="23.094,41 24.098,31 4.477,31 5.559,41 	"/>
	<path fill="#8C6239" d="M9.312,5.777c0.342,0.276,0.699,0.479,1.028,0.693c0.635,0.42,1.342,0.831,1.821,1.338
		c0.247,0.251,0.452,0.533,0.636,0.791c0.177,0.265,0.329,0.516,0.426,0.775c0.19,0.513,0.156,1.001,0.056,1.561
		c-0.194,1.143-0.894,2.417-1.581,3.817l0.113,0.136c0.779-0.275,1.434-0.741,2.021-1.314c0.574-0.582,1.072-1.299,1.323-2.203
		c0.258-0.883,0.095-1.983-0.422-2.786c-0.496-0.832-1.277-1.321-2.033-1.606c-0.382-0.156-0.771-0.267-1.096-0.402
		c-0.335-0.144-0.647-0.335-0.916-0.574c-0.546-0.467-0.791-1.229-0.728-1.67c0.021-0.221,0.062-0.404,0.137-0.649
		c0.083-0.233,0.222-0.495,0.399-0.764c0.351-0.542,0.823-1.097,1.298-1.737l-0.082-0.16c-0.42,0.023-0.815,0.135-1.188,0.297
		C10.142,1.471,9.789,1.69,9.459,1.97C9.133,2.256,8.826,2.61,8.617,3.063C8.404,3.511,8.319,4.093,8.482,4.606
		C8.645,5.117,8.97,5.504,9.312,5.777z"/>
	<path fill="#C69C6D" d="M16.361,9.064c0.265,0.179,0.518,0.29,0.737,0.424c0.433,0.259,0.899,0.561,1.152,0.934
		c0.271,0.378,0.433,0.74,0.515,1.006c0.065,0.285,0.011,0.492-0.022,0.802c-0.038,0.3-0.142,0.68-0.271,1.105
		c-0.133,0.427-0.304,0.878-0.452,1.42l0.118,0.134c0.581-0.103,1.061-0.376,1.493-0.732c0.426-0.363,0.798-0.852,0.981-1.49
		c0.196-0.636,0.063-1.457-0.334-2.029c-0.371-0.595-0.952-0.905-1.49-1.05c-0.27-0.079-0.547-0.132-0.758-0.208
		c-0.217-0.077-0.416-0.195-0.576-0.357c-0.348-0.313-0.391-0.875-0.276-1.047c0.046-0.096,0.063-0.146,0.085-0.268
		c0.037-0.118,0.097-0.27,0.181-0.439C17.62,6.916,17.873,6.521,18.118,6l-0.08-0.16c-0.307-0.043-0.587,0.002-0.859,0.082
		c-0.276,0.076-0.534,0.209-0.771,0.396c-0.238,0.187-0.462,0.431-0.62,0.764c-0.165,0.32-0.224,0.771-0.089,1.156
		C15.838,8.63,16.104,8.894,16.361,9.064z"/>
</g>
</svg>
