<?xml version="1.0" encoding="utf-8"?>
<!-- Generator: Adobe Illustrator 16.0.0, SVG Export Plug-In . SVG Version: 6.00 Build 0)  -->
<!DOCTYPE svg PUBLIC "-//W3C//DTD SVG 1.1//EN" "http://www.w3.org/Graphics/SVG/1.1/DTD/svg11.dtd">
<svg version="1.1" id="Capa_1" xmlns="http://www.w3.org/2000/svg" xmlns:xlink="http://www.w3.org/1999/xlink" x="0px" y="0px"
	 width="28.073px" height="61.082px" viewBox="0 0 28.073 61.082" enable-background="new 0 0 28.073 61.082" xml:space="preserve">
<g>
	<path fill="#FFFFFF" d="M13.792,60.153L13.792,60.153c-4.912,0-7.749-1.208-7.865-1.252l-0.373-0.225L5.52,58.24
		C5.494,57.943,3.037,29.605,2.29,24.321c-0.523,0-1.329-0.037-1.483-0.675c-0.114-0.48,0.251-0.788,0.533-0.958
		c0.062-0.142,0.125-0.301,0.176-0.429c-0.107-0.163-0.229-0.419-0.16-0.744c0.078-0.396,0.396-0.689,0.736-0.909
		c0.24-2.689,0.61-2.853,0.883-2.97c0.384-0.167,6.777-1.01,13.093-1.01c3.814,0,6.911,0.305,9.205,0.908l0.387,0.102l0.496,2.722
		c0.298,0.146,0.673,0.408,0.821,0.847c0.08,0.229,0.115,0.568-0.085,0.969c0.053,0.164,0.107,0.313,0.14,0.387l0.004,0.007
		c0.109,0.103,0.439,0.417,0.293,0.854c-0.153,0.463-0.671,0.523-0.84,0.543c-0.158,0.02-0.306,0.034-0.437,0.047L23.12,58.65
		l-0.443,0.273C19.651,59.627,16.66,60.153,13.792,60.153z M6.733,57.896C7.626,58.159,10.108,59,13.792,59h0.002
		c2.63,0,5.374-0.532,8.156-1.147l2.942-34.897l0.536-0.09c0.078-0.007,0.196-0.044,0.345-0.057c-0.045-0.131-0.1-0.31-0.165-0.522
		l-0.093-0.312l0.191-0.258c0.041-0.055,0.063-0.096,0.07-0.117c-0.062-0.062-0.23-0.152-0.34-0.182l-0.38-0.105l-0.485-2.663
		c-2.153-0.511-5.012-0.771-8.505-0.771c-5.687,0-11.213,0.688-12.437,0.889c-0.118,0.423-0.252,1.427-0.316,2.261l-0.03,0.335
		l-0.293,0.163c-0.147,0.081-0.247,0.146-0.314,0.196c0.099,0.145,0.206,0.376,0.122,0.663c-0.044,0.155-0.156,0.432-0.253,0.66
		c0.095-0.002,0.179-0.006,0.247-0.011l0.549-0.025l0.099,0.65C4.042,27.002,6.397,54.05,6.733,57.896z"/>
	<path fill="#FFFFFF" d="M26.51,22.918c-0.093-0.142-0.304-0.828-0.304-0.828c0.7-0.922-0.604-1.277-0.604-1.277l-0.489-2.674
		c-7.489-1.962-21.562-0.07-21.89,0.071c-0.326,0.143-0.535,2.769-0.535,2.769c-1.326,0.732-0.416,0.993-0.488,1.229
		c-0.069,0.237-0.371,0.923-0.371,0.923c-1.159,0.589,0.426,0.559,0.996,0.531c0.638,3.534,3.32,34.48,3.32,34.48
		s6.279,2.342,16.393,0l2.937-34.71c0.147-0.011,0.493-0.037,0.943-0.089C27.021,23.273,26.603,23.061,26.51,22.918z"/>
	<path fill="#603813" d="M8.951,5.008C9.3,5.29,9.663,5.497,9.994,5.713c0.648,0.428,1.366,0.845,1.852,1.361
		c0.251,0.254,0.46,0.541,0.644,0.804c0.182,0.269,0.336,0.522,0.435,0.788c0.192,0.521,0.158,1.017,0.058,1.586
		c-0.198,1.159-0.91,2.453-1.608,3.876l0.116,0.139c0.793-0.28,1.454-0.755,2.052-1.338c0.584-0.59,1.089-1.317,1.344-2.236
		c0.262-0.896,0.098-2.015-0.428-2.83c-0.505-0.846-1.297-1.342-2.064-1.631c-0.387-0.16-0.783-0.272-1.115-0.409
		c-0.34-0.146-0.658-0.339-0.929-0.583C9.794,4.765,9.545,3.991,9.61,3.542c0.021-0.225,0.062-0.411,0.137-0.659
		c0.085-0.236,0.227-0.505,0.407-0.775c0.355-0.551,0.836-1.114,1.317-1.768L11.39,0.178c-0.429,0.025-0.827,0.137-1.207,0.302
		C9.794,0.636,9.436,0.859,9.1,1.143c-0.332,0.29-0.64,0.65-0.855,1.111C8.027,2.709,7.942,3.299,8.107,3.818
		C8.271,4.339,8.605,4.732,8.951,5.008z"/>
	<path fill="#603813" d="M16.111,8.35c0.269,0.181,0.525,0.293,0.75,0.431c0.44,0.264,0.911,0.569,1.169,0.948
		c0.276,0.385,0.441,0.752,0.525,1.02c0.065,0.292,0.011,0.503-0.025,0.816c-0.036,0.305-0.144,0.691-0.272,1.123
		c-0.135,0.435-0.31,0.893-0.458,1.442l0.118,0.137c0.587-0.106,1.077-0.382,1.516-0.747c0.434-0.367,0.809-0.863,0.999-1.513
		c0.198-0.646,0.063-1.479-0.34-2.061c-0.378-0.605-0.969-0.92-1.516-1.067c-0.272-0.08-0.554-0.134-0.765-0.209
		c-0.224-0.078-0.426-0.199-0.589-0.363c-0.354-0.319-0.396-0.889-0.278-1.066c0.044-0.095,0.063-0.148,0.084-0.27
		c0.036-0.119,0.098-0.275,0.184-0.447c0.178-0.359,0.436-0.76,0.685-1.286l-0.08-0.163c-0.313-0.044-0.596,0.004-0.872,0.083
		C16.662,5.233,16.4,5.368,16.16,5.559c-0.243,0.189-0.471,0.438-0.631,0.777c-0.167,0.325-0.227,0.781-0.089,1.173
		C15.582,7.908,15.852,8.176,16.111,8.35z"/>
	<path fill="#603813" d="M3.324,24.262l3.689,33.333c0,0,9.81,1.624,14.677-0.44l3.393-33.04L3.324,24.262z"/>
</g>
</svg>
